Patient4_TMGait_0pt7_02_right_28_GRF.mot
version=1
nRows=71
nColumns=19
inDegrees=no
endheader
time	F1x	F1y	F1z	M1x	M1y	M1z	F2x	F2y	F2z	M2x	M2y	M2z	EC1x	EC1y	EC1z	EC2x	EC2y	EC2z
31.36	16.6057	761.6273	60.4696	-265.8701	-52.941	770.8274	-17.3164	2.3076	-23.9412	7.1783	23.2241	13.7977	-0.0592	0.0182	-0.0073	-0.0462	0.0165	0.9585
31.3716	18.7157	754.8678	62.4771	-263.669	-54.4936	762.4225	-11.6915	2.8296	-16.1531	5.3379	15.7349	10.8511	-0.0592	0.0182	-0.0073	-0.0462	0.0165	0.9585
31.3833	21.0641	747.1332	63.8934	-261.0462	-55.1775	752.2367	-6.9848	3.3568	-9.5244	3.7933	9.3687	8.4842	-0.0592	0.0182	-0.0073	-0.0462	0.0165	0.9585
31.3949	23.4797	738.9184	64.6647	-258.1589	-54.9898	740.8711	-3.4119	3.8179	-4.4518	2.6315	4.5015	6.7531	-0.0592	0.0182	-0.0073	-0.0462	0.0165	0.9585
31.4066	25.8137	730.7404	64.8494	-255.1931	-54.073	729.0025	-0.9874	4.2	-0.94579	1.8472	1.1547	5.6447	-0.0592	0.0182	-0.0073	-0.0462	0.0165	0.9585
31.4182	27.9353	723.0303	64.5749	-252.3118	-52.6456	717.2404	0.49207	4.4674	1.2228	1.3743	-0.89716	4.9924	-0.0592	0.0182	-0.0073	-0.0462	0.0165	0.9585
31.4299	29.8163	716.0905	63.9916	-249.6404	-50.9172	706.0335	1.2169	4.6039	2.3514	1.1233	-1.9344	4.6397	-0.0592	0.0182	-0.0073	-0.0462	0.0165	0.9585
31.4415	31.4544	710.074	63.2366	-247.2549	-49.0645	695.6495	1.4406	4.5465	2.7548	0.99015	-2.2706	4.3533	-0.0592	0.0182	-0.0073	-0.0462	0.0165	0.9585
31.4531	32.9227	705.043	62.441	-245.1908	-47.2216	686.2301	1.3231	4.2402	2.6928	0.87866	-2.1543	3.961	-0.0592	0.0182	-0.0073	-0.0462	0.0165	0.9585
31.4648	34.3447	701.0459	61.6887	-243.467	-45.456	677.8713	1.0347	3.5834	2.3704	0.69549	-1.7978	3.2331	-0.0592	0.0182	-0.0073	-0.0462	0.0165	0.9585
31.4764	35.8445	698.155	61.0615	-242.1016	-43.8175	670.6399	0.66869	2.4884	1.9329	0.36406	-1.3387	2.0109	-0.0592	0.0182	-0.0073	-0.0462	0.0165	0.9585
31.4881	37.5886	696.4767	60.6211	-241.1148	-42.3186	664.6258	0.34831	0.84067	1.4838	-0.18161	-0.89022	0.10296	-0.0592	0.0182	-0.0073	-0.0462	0.0165	0.9585
31.4997	39.7227	696.129	60.4445	-240.5244	-40.979	659.9168	0.13441	-1.3994	1.0909	-0.97341	-0.52855	-2.5433	-0.0592	0.0182	-0.0073	-0.0462	0.0165	0.9585
31.5114	42.3473	697.1913	60.6244	-240.3287	-39.8434	656.5648	0.12383	-4.2066	0.80093	-2.0038	-0.32929	-5.9102	-0.0592	0.0182	-0.0073	-0.0462	0.0165	0.9585
31.523	45.4861	699.6722	61.2571	-240.4991	-38.9764	654.592	0.38524	-7.3276	0.64849	-3.1761	-0.36154	-9.6787	-0.0592	0.0182	-0.0073	-0.0462	0.0165	0.9585
31.5346	49.09	703.4796	62.4308	-240.9763	-38.4613	653.9464	1.0189	-10.255	0.6645	-4.2827	-0.70609	-13.244	-0.0592	0.0182	-0.0073	-0.0462	0.0165	0.9585
31.5463	53.0041	708.4323	64.1838	-241.6829	-38.3635	654.5094	2.0888	-12.0452	0.88554	-4.9494	-1.4394	-15.446	-0.0592	0.0182	-0.0073	-0.0462	0.0165	0.9585
31.5579	57.0527	714.251	66.47	-242.5304	-38.6899	656.0694	3.6508	-11.2748	1.3572	-4.612	-2.6396	-14.5408	-0.0592	0.0182	-0.0073	-0.0462	0.0165	0.9585
31.5696	60.9779	720.5022	69.1493	-243.403	-39.3942	658.2805	5.6504	-5.9236	2.1324	-2.4791	-4.3501	-8.0258	-0.0592	0.0182	-0.0073	-0.0462	0.0165	0.9585
31.5812	64.5582	726.5437	71.9792	-244.1383	-40.3424	660.5918	7.9427	6.5395	3.2328	2.4419	-6.53	7.2221	-0.0592	0.0182	-0.0073	-0.0462	0.0165	0.9585
31.5929	67.6119	731.5017	74.6831	-244.5075	-41.3589	662.2457	10.1444	28.9717	4.651	11.2647	-9.0014	34.7451	-0.0592	0.0182	-0.0073	-0.0462	0.0165	0.9585
31.6045	70.0832	734.2344	76.9223	-244.2006	-42.1839	662.1893	11.6145	64.0687	6.2754	25.0313	-11.3515	77.8929	-0.0592	0.0182	-0.0073	-0.0462	0.0165	0.9585
31.6161	71.9859	733.3191	78.3708	-242.8132	-42.5488	659.124	11.3217	113.5198	7.8698	44.3814	-12.8621	138.8119	-0.0592	0.0182	-0.0073	-0.0462	0.0165	0.9585
31.6278	73.4002	727.0504	78.6557	-239.8426	-42.1224	651.4819	7.8516	176.7013	8.986	69.0421	-12.414	216.8062	-0.0592	0.0182	-0.0073	-0.0462	0.0165	0.9585
31.6394	74.3095	713.5315	77.4932	-234.7075	-40.6723	637.5515	-0.34129	249.2814	8.9475	97.2805	-8.6198	306.6459	-0.0592	0.0182	-0.0073	-0.0462	0.0165	0.9585
31.6511	74.6118	690.9121	74.6639	-226.8235	-38.0502	615.6892	-13.2072	322.7841	6.9966	125.7315	-0.61407	397.9591	-0.0592	0.0182	-0.0073	-0.0462	0.0165	0.9585
31.6627	74.0449	657.7966	70.1489	-215.7297	-34.3369	584.7062	-28.074	386.3959	2.1069	150.1684	11.6247	477.214	-0.0592	0.0182	-0.0073	-0.0462	0.0165	0.9585
31.6744	72.2989	613.7412	64.1131	-201.2488	-29.7878	544.2529	-41.9711	433.7841	-5.4156	168.1346	26.4663	536.1783	-0.0592	0.0182	-0.0073	-0.0462	0.0165	0.9585
31.686	69.0968	559.6223	56.9585	-183.6023	-24.8341	495.193	-53.4722	465.6684	-14.2718	179.9273	41.7971	575.4132	-0.0592	0.0182	-0.0073	-0.0462	0.0165	0.9585
31.6976	64.3526	497.4155	49.2527	-163.3643	-19.972	439.3016	-62.0969	487.1842	-23.655	187.5837	56.4243	601.128	-0.0592	0.0182	-0.0073	-0.0462	0.0165	0.9585
31.7093	58.0725	429.9692	41.4771	-141.3952	-15.5767	379.1291	-68.0673	504.8397	-32.1553	193.7072	68.8573	621.3746	-0.0592	0.0182	-0.0073	-0.0462	0.0165	0.9585
31.7209	50.4425	360.5714	34.0196	-118.7253	-11.8984	317.5407	-71.6807	523.5762	-39.2216	200.2661	78.5619	642.2742	-0.0592	0.0182	-0.0073	-0.0462	0.0165	0.9585
31.7326	41.7507	292.6616	27.1269	-96.4605	-9.0347	257.5537	-73.3444	545.8405	-44.423	208.2429	85.2636	666.8457	-0.0592	0.0182	-0.0073	-0.0462	0.0165	0.9585
31.7442	32.5773	229.4222	21.0251	-75.6492	-6.983	201.8803	-73.4393	571.993	-48.2437	217.7498	89.6798	695.571	-0.0592	0.0182	-0.0073	-0.0462	0.0165	0.9585
31.7559	23.6267	173.3584	15.8469	-57.1326	-5.6167	152.6677	-72.3798	601.1046	-51.3068	228.3666	92.7315	727.3951	-0.0592	0.0182	-0.0073	-0.0462	0.0165	0.9585
31.7675	15.639	125.8699	11.6494	-41.4056	-4.745	111.0183	-70.6048	631.2786	-54.3397	239.3136	95.432	760.1429	-0.0592	0.0182	-0.0073	-0.0462	0.0165	0.9585
31.7791	9.0185	87.3111	8.3357	-28.618	-4.1509	77.2225	-68.5514	660.5614	-57.795	249.8122	98.4591	791.568	-0.0592	0.0182	-0.0073	-0.0462	0.0165	0.9585
31.7908	3.9343	57.1928	5.7543	-18.6395	-3.6538	50.7974	-66.5229	687.4532	-61.7116	259.2955	101.9831	819.9246	-0.0592	0.0182	-0.0073	-0.0462	0.0165	0.9585
31.8024	0.30783	34.6331	3.7643	-11.1862	-3.1627	31.0007	-64.6915	711.1222	-65.9694	267.4766	105.9084	844.2534	-0.0592	0.0182	-0.0073	-0.0462	0.0165	0.9585
31.8141	-1.8971	18.4334	2.2484	-5.8661	-2.5989	16.7472	-63.0582	731.3517	-70.0634	274.3198	109.6801	864.2907	-0.0592	0.0182	-0.0073	-0.0462	0.0165	0.9585
31.8257	-2.8831	7.4491	1.132	-2.2894	-1.9715	7.0811	-61.5915	748.1947	-73.675	279.8882	112.8953	880.1262	-0.0592	0.0182	-0.0073	-0.0462	0.0165	0.9585
31.8374	-2.9033	0.58988	0.36227	-0.087737	-1.3275	1.0072	-60.2033	761.7321	-76.479	284.2434	115.1606	891.8733	-0.0592	0.0182	-0.0073	-0.0462	0.0165	0.9585
31.849	-2.4382	-3.0883	-0.12402	1.0652	-0.76507	-2.2503	-58.8653	771.9063	-78.5144	287.3636	116.4895	899.5354	-0.0592	0.0182	-0.0073	-0.0462	0.0165	0.9585
31.8606	-1.7319	-4.5631	-0.3725	1.4951	-0.32793	-3.5789	-57.5769	778.6162	-79.7648	289.2102	116.8776	903.0596	-0.0592	0.0182	-0.0073	-0.0462	0.0165	0.9585
31.8723	-1.0438	-4.6257	-0.48092	1.4714	-0.0077858	-3.6191	-56.314	782.0537	-80.3918	289.8366	116.5046	902.7388	-0.0592	0.0182	-0.0073	-0.0462	0.0165	0.9585
31.8839	-0.41616	-3.9277	-0.47221	1.2103	0.19534	-3.0009	-55.0327	782.6661	-80.465	289.4087	115.4574	899.1194	-0.0592	0.0182	-0.0073	-0.0462	0.0165	0.9585
31.8956	0.047712	-2.8749	-0.42526	0.84796	0.3216	-2.0384	-53.6633	781.1098	-80.1187	288.1723	113.8722	892.9681	-0.0592	0.0182	-0.0073	-0.0462	0.0165	0.9585
31.9072	0.40851	-1.7938	-0.33388	0.48613	0.37474	-1.0703	-52.1136	778.0875	-79.4156	286.4027	111.8079	885.0673	-0.0592	0.0182	-0.0073	-0.0462	0.0165	0.9585
31.9189	0.62252	-0.79398	-0.25466	0.16118	0.39455	-0.147	-50.3204	774.235	-78.4195	284.3548	109.3246	876.1114	-0.0592	0.0182	-0.0073	-0.0462	0.0165	0.9585
31.9305	0.78069	0.0080064	-0.16884	-0.096242	0.38535	0.57765	-48.2103	770.0962	-77.1849	282.2469	106.4689	866.6727	-0.0592	0.0182	-0.0073	-0.0462	0.0165	0.9585
31.9421	0.83634	0.64118	-0.11165	-0.29563	0.36551	1.1796	-45.7556	766.0412	-75.7435	280.2303	103.2757	857.1398	-0.0592	0.0182	-0.0073	-0.0462	0.0165	0.9585
31.9538	0.88112	1.0805	-0.063792	-0.43529	0.33921	1.5957	-42.9618	762.2045	-74.1795	278.3643	99.841	847.6501	-0.0592	0.0182	-0.0073	-0.0462	0.0165	0.9585
31.9654	0.8693	1.3858	-0.039207	-0.5321	0.30952	1.9259	-39.838	758.5489	-72.5343	276.6373	96.2194	838.155	-0.0592	0.0182	-0.0073	-0.0462	0.0165	0.9585
31.9771	0.87807	1.5481	-0.024199	-0.58612	0.2833	2.1011	-36.4041	754.8471	-70.8975	274.9649	92.5121	828.4068	-0.0592	0.0182	-0.0073	-0.0462	0.0165	0.9585
31.9887	0.83984	1.5926	-0.011251	-0.60132	0.23769	2.1837	-32.6506	750.8119	-69.2732	273.2402	88.7258	818.0857	-0.0592	0.0182	-0.0073	-0.0462	0.0165	0.9585
32.0004	0.81806	1.4688	0.0080539	-0.56392	0.17903	2.0524	-28.5474	746.1383	-67.6895	271.3503	84.879	806.8551	-0.0592	0.0182	-0.0073	-0.0462	0.0165	0.9585
32.012	0.73615	1.1596	0.05071	-0.46162	0.073903	1.7079	-24.0441	740.6055	-66.0899	269.2166	80.9043	794.4826	-0.0592	0.0182	-0.0073	-0.0462	0.0165	0.9585
32.0236	0.66198	0.56638	0.11727	-0.26347	-0.057254	0.98599	-19.0686	734.2095	-64.4622	266.8365	76.7784	780.9766	-0.0592	0.0182	-0.0073	-0.0462	0.0165	0.9585
32.0353	0.52923	-0.36159	0.20898	0.055674	-0.22582	-0.13114	-13.5902	727.1796	-62.7934	264.2917	72.4884	766.6114	-0.0592	0.0182	-0.0073	-0.0462	0.0165	0.9585
32.0469	0.41388	-1.7333	0.31457	0.53123	-0.39702	-1.8015	-7.6035	719.995	-61.1066	261.751	68.063	751.9208	-0.0592	0.0182	-0.0073	-0.0462	0.0165	0.9585
32.0586	0.28519	-3.5554	0.40757	1.1695	-0.54715	-3.9951	-1.1652	713.3916	-59.4809	259.4668	63.5927	737.7267	-0.0592	0.0182	-0.0073	-0.0462	0.0165	0.9585
32.0702	0.24363	-5.7929	0.45724	1.9504	-0.61543	-6.705	5.6251	708.2029	-57.9921	257.7301	59.1745	724.9353	-0.0592	0.0182	-0.0073	-0.0462	0.0165	0.9585
32.0819	0.30099	-8.2066	0.40526	2.7916	-0.5263	-9.6129	12.6346	705.2852	-56.7861	256.8344	54.9782	714.4862	-0.0592	0.0182	-0.0073	-0.0462	0.0165	0.9585
32.0935	0.59414	-10.3433	0.18736	3.5296	-0.15706	-12.2119	19.7009	705.2426	-55.9748	256.9888	51.1488	707.0326	-0.0592	0.0182	-0.0073	-0.0462	0.0165	0.9585
32.1051	1.1665	-11.3932	-0.28842	3.8791	0.62873	-13.5054	26.5887	708.3356	-55.7	258.2707	47.8818	702.8965	-0.0592	0.0182	-0.0073	-0.0462	0.0165	0.9585
32.1168	2.1826	-10.1833	-1.113	3.4203	1.9942	-12.1166	33.051	714.355	-56.0164	260.5876	45.303	701.9232	-0.0592	0.0182	-0.0073	-0.0462	0.0165	0.9585
32.1284	3.6907	-5.0649	-2.3773	1.5769	4.07	-6.0355	38.7651	722.5979	-56.933	263.6628	43.5237	703.5089	-0.0592	0.0182	-0.0073	-0.0462	0.0165	0.9585
32.1401	5.7779	5.9675	-4.1281	-2.3471	6.936	7.1223	43.4192	731.8726	-58.355	267.0423	42.5669	706.5822	-0.0592	0.0182	-0.0073	-0.0462	0.0165	0.9585
32.1517	8.339	25.1441	-6.3322	-9.1111	10.5125	30.0648	46.6632	740.5641	-60.1185	270.1142	42.4078	709.7278	-0.0592	0.0182	-0.0073	-0.0462	0.0165	0.9585
32.1634	11.1545	54.4415	-8.7936	-19.3788	14.4692	65.1491	48.2546	746.736	-61.9705	272.1571	42.9118	711.2131	-0.0592	0.0182	-0.0073	-0.0462	0.0165	0.9585
32.175	13.6499	94.9147	-11.0947	-33.4747	18.0814	113.6853	48.0626	748.3781	-63.6076	272.43	43.8559	709.2442	-0.0592	0.0182	-0.0073	-0.0462	0.0165	0.9585
